# xmcd
#
# Track frame offsets: 
#        150
#        15310
#        27360
#        39705
#        57815
#        70778
#        87355
#        103758
#        118528
#        134095
#        147753
#        156510
#        169295
#        194775
#        205230
#
# Disc length: 2903 seconds
#
# Revision: 0
# Processed by: cddbd v1.5.2PL0 Copyright (c) Steve Scherf et al.
# Submitted via: ExactAudioCopy v0.95b4
#
DISCID=dd0b550f
DTITLE=Dr. Feelgood - Brilleaux
DYEAR=1987
DGENRE=R&B
TTITLE0=I Love You So You're Mine
TTITLE1=You Got My Number
TTITLE2=Big Enough
TTITLE3=Don't Wait Up
TTITLE4=Get Rhythm
TTITLE5=Where Is the Next One
TTITLE6=Play Dirty
TTITLE7=Grow Too Old
TTITLE8=Rough Ride
TTITLE9=I'm a Real Man
TTITLE10=Come Over Here
TTITLE11=Take What You Can Get
TTITLE12=Don't Wait Up (Extended Version)
TTITLE13=Something Good
TTITLE14=Rockin With Somebody New
EXTD=
EXTT0=
EXTT1=
EXTT2=
EXTT3=
EXTT4=
EXTT5=
EXTT6=
EXTT7=
EXTT8=
EXTT9=
EXTT10=
EXTT11=
EXTT12=
EXTT13=
EXTT14=
PLAYORDER=
